<svg width="64" height="64" viewBox="0 0 64 64" fill="none" xmlns="http://www.w3.org/2000/svg">
<path d="M32 6.996C31.7348 6.996 31.4804 6.89064 31.2929 6.70311C31.1054 6.51557 31 6.26122 31 5.996V3C31 2.73478 31.1054 2.48043 31.2929 2.29289C31.4804 2.10536 31.7348 2 32 2C32.2652 2 32.5196 2.10536 32.7071 2.29289C32.8946 2.48043 33 2.73478 33 3V5.996C33 6.26122 32.8946 6.51557 32.7071 6.70311C32.5196 6.89064 32.2652 6.996 32 6.996ZM50.388 14.612C50.19 14.6124 49.9964 14.554 49.8317 14.4442C49.667 14.3344 49.5386 14.1782 49.4628 13.9953C49.3871 13.8124 49.3674 13.6111 49.4062 13.417C49.4451 13.2229 49.5407 13.0447 49.681 12.905L51.799 10.787C51.8918 10.6942 52.0021 10.6205 52.1234 10.5703C52.2447 10.52 52.3747 10.4942 52.506 10.4942C52.6373 10.4942 52.7673 10.52 52.8886 10.5703C53.0099 10.6205 53.1202 10.6942 53.213 10.787C53.3058 10.8798 53.3795 10.9901 53.4297 11.1114C53.48 11.2327 53.5058 11.3627 53.5058 11.494C53.5058 11.6253 53.48 11.7553 53.4297 11.8766C53.3795 11.9979 53.3058 12.1082 53.213 12.201L51.095 14.319C51.0023 14.4121 50.8921 14.4859 50.7708 14.5362C50.6495 14.5865 50.5194 14.6122 50.388 14.612ZM61 33H58.004C57.7388 33 57.4844 32.8946 57.2969 32.7071C57.1094 32.5196 57.004 32.2652 57.004 32C57.004 31.7348 57.1094 31.4804 57.2969 31.2929C57.4844 31.1054 57.7388 31 58.004 31H61C61.2652 31 61.5196 31.1054 61.7071 31.2929C61.8946 31.4804 62 31.7348 62 32C62 32.2652 61.8946 32.5196 61.7071 32.7071C61.5196 32.8946 61.2652 33 61 33ZM52.506 53.506C52.3747 53.5061 52.2446 53.4803 52.1233 53.43C52.0019 53.3798 51.8917 53.306 51.799 53.213L49.681 51.095C49.5882 51.0022 49.5145 50.8919 49.4643 50.7706C49.414 50.6493 49.3881 50.5193 49.3881 50.388C49.3881 50.2567 49.414 50.1267 49.4643 50.0054C49.5145 49.8841 49.5882 49.7738 49.681 49.681C49.7738 49.5882 49.8841 49.5145 50.0054 49.4643C50.1267 49.414 50.2567 49.3881 50.388 49.3881C50.5193 49.3881 50.6493 49.414 50.7706 49.4643C50.8919 49.5145 51.0022 49.5882 51.095 49.681L53.213 51.799C53.3533 51.9387 53.4489 52.1169 53.4878 52.311C53.5266 52.5051 53.5069 52.7064 53.4312 52.8893C53.3554 53.0722 53.227 53.2284 53.0623 53.3382C52.8976 53.448 52.704 53.5064 52.506 53.506ZM32 62C31.7348 62 31.4804 61.8946 31.2929 61.7071C31.1054 61.5196 31 61.2652 31 61V58.004C31 57.7388 31.1054 57.4844 31.2929 57.2969C31.4804 57.1094 31.7348 57.004 32 57.004C32.2652 57.004 32.5196 57.1094 32.7071 57.2969C32.8946 57.4844 33 57.7388 33 58.004V61C33 61.2652 32.8946 61.5196 32.7071 61.7071C32.5196 61.8946 32.2652 62 32 62ZM11.494 53.506C11.296 53.5064 11.1024 53.448 10.9377 53.3382C10.773 53.2284 10.6446 53.0722 10.5688 52.8893C10.4931 52.7064 10.4734 52.5051 10.5122 52.311C10.5511 52.1169 10.6467 51.9387 10.787 51.799L12.905 49.681C12.9978 49.5882 13.1081 49.5145 13.2294 49.4643C13.3507 49.414 13.4807 49.3881 13.612 49.3881C13.7433 49.3881 13.8733 49.414 13.9946 49.4643C14.1159 49.5145 14.2262 49.5882 14.319 49.681C14.4118 49.7738 14.4855 49.8841 14.5357 50.0054C14.586 50.1267 14.6118 50.2567 14.6118 50.388C14.6118 50.5193 14.586 50.6493 14.5357 50.7706C14.4855 50.8919 14.4118 51.0022 14.319 51.095L12.201 53.213C12.1083 53.306 11.9981 53.3798 11.8767 53.43C11.7554 53.4803 11.6253 53.5061 11.494 53.506ZM5.996 33H3C2.73478 33 2.48043 32.8946 2.29289 32.7071C2.10536 32.5196 2 32.2652 2 32C2 31.7348 2.10536 31.4804 2.29289 31.2929C2.48043 31.1054 2.73478 31 3 31H5.996C6.26122 31 6.51557 31.1054 6.70311 31.2929C6.89064 31.4804 6.996 31.7348 6.996 32C6.996 32.2652 6.89064 32.5196 6.70311 32.7071C6.51557 32.8946 6.26122 33 5.996 33ZM13.612 14.612C13.4807 14.6121 13.3506 14.5863 13.2293 14.536C13.1079 14.4858 12.9977 14.412 12.905 14.319L10.787 12.201C10.6942 12.1082 10.6205 11.9979 10.5703 11.8766C10.52 11.7553 10.4942 11.6253 10.4942 11.494C10.4942 11.3627 10.52 11.2327 10.5703 11.1114C10.6205 10.9901 10.6942 10.8798 10.787 10.787C10.8798 10.6942 10.9901 10.6205 11.1114 10.5703C11.2327 10.52 11.3627 10.4942 11.494 10.4942C11.6253 10.4942 11.7553 10.52 11.8766 10.5703C11.9979 10.6205 12.1082 10.6942 12.201 10.787L14.319 12.905C14.4593 13.0447 14.5549 13.2229 14.5938 13.417C14.6326 13.6111 14.6129 13.8124 14.5372 13.9953C14.4614 14.1782 14.333 14.3344 14.1683 14.4442C14.0036 14.554 13.81 14.6124 13.612 14.612Z" fill="#FBB03B"/>
<path d="M32 6.996C31.7348 6.996 31.4804 6.89064 31.2929 6.70311C31.1054 6.51557 31 6.26122 31 5.996V3C31 2.73478 31.1054 2.48043 31.2929 2.29289C31.4804 2.10536 31.7348 2 32 2C32.2652 2 32.5196 2.10536 32.7071 2.29289C32.8946 2.48043 33 2.73478 33 3V5.996C33 6.26122 32.8946 6.51557 32.7071 6.70311C32.5196 6.89064 32.2652 6.996 32 6.996ZM50.388 14.612C50.19 14.6124 49.9964 14.554 49.8317 14.4442C49.667 14.3344 49.5386 14.1782 49.4628 13.9953C49.3871 13.8124 49.3674 13.6111 49.4062 13.417C49.4451 13.2229 49.5407 13.0447 49.681 12.905L51.799 10.787C51.8918 10.6942 52.0021 10.6205 52.1234 10.5703C52.2447 10.52 52.3747 10.4942 52.506 10.4942C52.6373 10.4942 52.7673 10.52 52.8886 10.5703C53.0099 10.6205 53.1202 10.6942 53.213 10.787C53.3058 10.8798 53.3795 10.9901 53.4297 11.1114C53.48 11.2327 53.5058 11.3627 53.5058 11.494C53.5058 11.6253 53.48 11.7553 53.4297 11.8766C53.3795 11.9979 53.3058 12.1082 53.213 12.201L51.095 14.319C51.0023 14.4121 50.8921 14.4859 50.7708 14.5362C50.6495 14.5865 50.5194 14.6122 50.388 14.612ZM61 33H58.004C57.7388 33 57.4844 32.8946 57.2969 32.7071C57.1094 32.5196 57.004 32.2652 57.004 32C57.004 31.7348 57.1094 31.4804 57.2969 31.2929C57.4844 31.1054 57.7388 31 58.004 31H61C61.2652 31 61.5196 31.1054 61.7071 31.2929C61.8946 31.4804 62 31.7348 62 32C62 32.2652 61.8946 32.5196 61.7071 32.7071C61.5196 32.8946 61.2652 33 61 33ZM52.506 53.506C52.3747 53.5061 52.2446 53.4803 52.1233 53.43C52.0019 53.3798 51.8917 53.306 51.799 53.213L49.681 51.095C49.5882 51.0022 49.5145 50.8919 49.4643 50.7706C49.414 50.6493 49.3881 50.5193 49.3881 50.388C49.3881 50.2567 49.414 50.1267 49.4643 50.0054C49.5145 49.8841 49.5882 49.7738 49.681 49.681C49.7738 49.5882 49.8841 49.5145 50.0054 49.4643C50.1267 49.414 50.2567 49.3881 50.388 49.3881C50.5193 49.3881 50.6493 49.414 50.7706 49.4643C50.8919 49.5145 51.0022 49.5882 51.095 49.681L53.213 51.799C53.3533 51.9387 53.4489 52.1169 53.4878 52.311C53.5266 52.5051 53.5069 52.7064 53.4312 52.8893C53.3554 53.0722 53.227 53.2284 53.0623 53.3382C52.8976 53.448 52.704 53.5064 52.506 53.506ZM32 62C31.7348 62 31.4804 61.8946 31.2929 61.7071C31.1054 61.5196 31 61.2652 31 61V58.004C31 57.7388 31.1054 57.4844 31.2929 57.2969C31.4804 57.1094 31.7348 57.004 32 57.004C32.2652 57.004 32.5196 57.1094 32.7071 57.2969C32.8946 57.4844 33 57.7388 33 58.004V61C33 61.2652 32.8946 61.5196 32.7071 61.7071C32.5196 61.8946 32.2652 62 32 62ZM11.494 53.506C11.296 53.5064 11.1024 53.448 10.9377 53.3382C10.773 53.2284 10.6446 53.0722 10.5688 52.8893C10.4931 52.7064 10.4734 52.5051 10.5122 52.311C10.5511 52.1169 10.6467 51.9387 10.787 51.799L12.905 49.681C12.9978 49.5882 13.1081 49.5145 13.2294 49.4643C13.3507 49.414 13.4807 49.3881 13.612 49.3881C13.7433 49.3881 13.8733 49.414 13.9946 49.4643C14.1159 49.5145 14.2262 49.5882 14.319 49.681C14.4118 49.7738 14.4855 49.8841 14.5357 50.0054C14.586 50.1267 14.6118 50.2567 14.6118 50.388C14.6118 50.5193 14.586 50.6493 14.5357 50.7706C14.4855 50.8919 14.4118 51.0022 14.319 51.095L12.201 53.213C12.1083 53.306 11.9981 53.3798 11.8767 53.43C11.7554 53.4803 11.6253 53.5061 11.494 53.506ZM5.996 33H3C2.73478 33 2.48043 32.8946 2.29289 32.7071C2.10536 32.5196 2 32.2652 2 32C2 31.7348 2.10536 31.4804 2.29289 31.2929C2.48043 31.1054 2.73478 31 3 31H5.996C6.26122 31 6.51557 31.1054 6.70311 31.2929C6.89064 31.4804 6.996 31.7348 6.996 32C6.996 32.2652 6.89064 32.5196 6.70311 32.7071C6.51557 32.8946 6.26122 33 5.996 33ZM13.612 14.612C13.4807 14.6121 13.3506 14.5863 13.2293 14.536C13.1079 14.4858 12.9977 14.412 12.905 14.319L10.787 12.201C10.6942 12.1082 10.6205 11.9979 10.5703 11.8766C10.52 11.7553 10.4942 11.6253 10.4942 11.494C10.4942 11.3627 10.52 11.2327 10.5703 11.1114C10.6205 10.9901 10.6942 10.8798 10.787 10.787C10.8798 10.6942 10.9901 10.6205 11.1114 10.5703C11.2327 10.52 11.3627 10.4942 11.494 10.4942C11.6253 10.4942 11.7553 10.52 11.8766 10.5703C11.9979 10.6205 12.1082 10.6942 12.201 10.787L14.319 12.905C14.4593 13.0447 14.5549 13.2229 14.5938 13.417C14.6326 13.6111 14.6129 13.8124 14.5372 13.9953C14.4614 14.1782 14.333 14.3344 14.1683 14.4442C14.0036 14.554 13.81 14.6124 13.612 14.612ZM41.942 8.972C41.7775 8.97204 41.6155 8.9315 41.4704 8.85397C41.3254 8.77644 41.2016 8.66431 41.1103 8.52753C41.0189 8.39075 40.9626 8.23354 40.9465 8.06982C40.9305 7.90611 40.955 7.74096 41.018 7.589L42.164 4.821C42.2142 4.69966 42.2877 4.58939 42.3805 4.49648C42.4733 4.40357 42.5835 4.32985 42.7047 4.27952C42.826 4.22919 42.956 4.20324 43.0873 4.20315C43.2186 4.20306 43.3487 4.22883 43.47 4.279C43.5913 4.32916 43.7016 4.40274 43.7945 4.49552C43.8874 4.5883 43.9612 4.69847 44.0115 4.81975C44.0618 4.94102 44.0878 5.07102 44.0878 5.20232C44.0879 5.33362 44.0622 5.46366 44.012 5.585L42.866 8.353C42.7908 8.53622 42.6628 8.69291 42.4982 8.80314C42.3337 8.91337 42.1401 8.97215 41.942 8.972ZM56.022 23.041C55.7908 23.0405 55.5668 22.96 55.3882 22.8132C55.2096 22.6663 55.0874 22.4621 55.0422 22.2353C54.9971 22.0085 55.0319 21.7731 55.1407 21.5691C55.2495 21.365 55.4256 21.2049 55.639 21.116L58.406 19.969C58.6487 19.8794 58.9166 19.8872 59.1537 19.9908C59.3907 20.0944 59.5784 20.2857 59.6775 20.5247C59.7766 20.7637 59.7793 21.0317 59.685 21.2727C59.5908 21.5136 59.4069 21.7087 59.172 21.817L56.405 22.964C56.2836 23.0145 56.1535 23.0407 56.022 23.041ZM58.796 44.089C58.6648 44.0888 58.535 44.0626 58.414 44.012L55.646 42.866C55.4054 42.7616 55.2155 42.567 55.1171 42.3239C55.0187 42.0809 55.0197 41.8089 55.1199 41.5666C55.2201 41.3242 55.4114 41.131 55.6527 41.0284C55.894 40.9257 56.166 40.922 56.41 41.018L59.178 42.164C59.3924 42.2521 59.5695 42.4119 59.6792 42.6161C59.7888 42.8203 59.824 43.0563 59.7789 43.2836C59.7338 43.511 59.6111 43.7156 59.4318 43.8625C59.2525 44.0094 59.0278 44.0895 58.796 44.089ZM43.108 59.789C42.9101 59.7892 42.7165 59.7306 42.552 59.6206C42.3875 59.5105 42.2594 59.354 42.184 59.171L41.037 56.404C40.9474 56.1613 40.9552 55.8934 41.0588 55.6563C41.1624 55.4193 41.3537 55.2316 41.5927 55.1325C41.8317 55.0334 42.0997 55.0307 42.3407 55.125C42.5816 55.2192 42.7767 55.4031 42.885 55.638L44.032 58.405C44.095 58.557 44.1195 58.7222 44.1034 58.886C44.0873 59.0497 44.031 59.207 43.9397 59.3438C43.8483 59.4807 43.7246 59.5929 43.5796 59.6705C43.4345 59.7482 43.2725 59.7889 43.108 59.789ZM20.911 59.797C20.7465 59.797 20.5845 59.7565 20.4394 59.679C20.2944 59.6014 20.1706 59.4893 20.0793 59.3525C19.9879 59.2157 19.9316 59.0585 19.9155 58.8948C19.8995 58.7311 19.924 58.566 19.987 58.414L21.133 55.646C21.1832 55.5247 21.2567 55.4144 21.3495 55.3215C21.4423 55.2286 21.5525 55.1548 21.6737 55.1045C21.795 55.0542 21.925 55.0282 22.0563 55.0281C22.1876 55.0281 22.3177 55.0538 22.439 55.104C22.5603 55.1542 22.6706 55.2277 22.7635 55.3205C22.8564 55.4133 22.9302 55.5235 22.9805 55.6447C23.0308 55.766 23.0568 55.896 23.0569 56.0273C23.0569 56.1586 23.0312 56.2887 22.981 56.41L21.835 59.178C21.7597 59.3611 21.6316 59.5178 21.4671 59.628C21.3026 59.7382 21.109 59.797 20.911 59.797ZM5.212 44.108C4.98076 44.1075 4.75682 44.027 4.57821 43.8802C4.39961 43.7333 4.27736 43.5291 4.23224 43.3023C4.18712 43.0755 4.2219 42.8401 4.33069 42.6361C4.43948 42.432 4.61555 42.2719 4.829 42.183L7.596 41.036C7.71734 40.9857 7.8474 40.9598 7.97875 40.9598C8.11011 40.9597 8.24018 40.9856 8.36154 41.0358C8.48291 41.086 8.59319 41.1597 8.6861 41.2526C8.779 41.3454 8.8527 41.4557 8.903 41.577C8.9533 41.6983 8.9792 41.8284 8.97923 41.9598C8.97927 42.0911 8.95343 42.2212 8.90319 42.3425C8.85295 42.4639 8.7793 42.5742 8.68645 42.6671C8.59359 42.76 8.48334 42.8337 8.362 42.884L5.595 44.031C5.47361 44.0815 5.34348 44.1077 5.212 44.108ZM7.971 23.058C7.83984 23.0578 7.71001 23.0316 7.589 22.981L4.821 21.835C4.58045 21.7306 4.39051 21.536 4.2921 21.2929C4.19369 21.0499 4.19469 20.7779 4.29487 20.5356C4.39505 20.2932 4.5864 20.1 4.82771 19.9974C5.06902 19.8947 5.34098 19.891 5.585 19.987L8.353 21.133C8.5674 21.2211 8.74455 21.3809 8.85416 21.5851C8.96377 21.7893 8.99903 22.0253 8.95391 22.2526C8.9088 22.48 8.78611 22.6846 8.60682 22.8315C8.42753 22.9784 8.20278 23.0585 7.971 23.058ZM22.041 8.979C21.8431 8.97923 21.6495 8.9206 21.485 8.81056C21.3205 8.70051 21.1924 8.54403 21.117 8.361L19.97 5.594C19.8774 5.35082 19.8833 5.08115 19.9864 4.84223C20.0894 4.60332 20.2816 4.41398 20.5219 4.31441C20.7623 4.21485 21.0321 4.2129 21.2739 4.30898C21.5157 4.40506 21.7105 4.5916 21.817 4.829L22.964 7.596C23.0267 7.74789 23.0511 7.91289 23.0349 8.07642C23.0187 8.23995 22.9626 8.39699 22.8714 8.53367C22.7801 8.67036 22.6567 8.78248 22.5119 8.86015C22.367 8.93781 22.2053 8.97863 22.041 8.979Z" fill="#FBB03B"/>
<path d="M41.942 8.97197C41.7775 8.97202 41.6155 8.93147 41.4704 8.85394C41.3253 8.77641 41.2016 8.66429 41.1102 8.52751C41.0189 8.39073 40.9626 8.23351 40.9465 8.0698C40.9304 7.90609 40.955 7.74093 41.018 7.58898L42.164 4.82098C42.2142 4.69963 42.2877 4.58936 42.3805 4.49645C42.4733 4.40355 42.5835 4.32982 42.7047 4.27949C42.826 4.22916 42.956 4.20321 43.0873 4.20313C43.2186 4.20304 43.3486 4.22881 43.47 4.27897C43.5913 4.32914 43.7016 4.40271 43.7945 4.4955C43.8874 4.58828 43.9611 4.69845 44.0115 4.81972C44.0618 4.941 44.0877 5.071 44.0878 5.2023C44.0879 5.3336 44.0622 5.46363 44.012 5.58498L42.866 8.35297C42.7908 8.53619 42.6628 8.69289 42.4982 8.80312C42.3337 8.91335 42.14 8.97213 41.942 8.97197ZM56.022 23.041C55.7908 23.0405 55.5668 22.96 55.3882 22.8131C55.2096 22.6663 55.0874 22.4621 55.0422 22.2353C54.9971 22.0085 55.0319 21.7731 55.1407 21.5691C55.2495 21.365 55.4255 21.2049 55.639 21.116L58.406 19.969C58.6487 19.8794 58.9166 19.8872 59.1537 19.9908C59.3907 20.0944 59.5784 20.2857 59.6775 20.5247C59.7766 20.7637 59.7792 21.0317 59.685 21.2726C59.5908 21.5136 59.4069 21.7086 59.172 21.817L56.405 22.964C56.2836 23.0145 56.1535 23.0407 56.022 23.041ZM58.796 44.089C58.6648 44.0887 58.535 44.0626 58.414 44.012L55.646 42.866C55.4054 42.7616 55.2155 42.5669 55.1171 42.3239C55.0187 42.0808 55.0197 41.8089 55.1199 41.5665C55.22 41.3242 55.4114 41.1309 55.6527 41.0283C55.894 40.9257 56.166 40.922 56.41 41.018L59.178 42.164C59.3924 42.252 59.5695 42.4119 59.6791 42.6161C59.7888 42.8203 59.824 43.0563 59.7789 43.2836C59.7338 43.511 59.6111 43.7156 59.4318 43.8625C59.2525 44.0094 59.0278 44.0894 58.796 44.089ZM43.108 59.789C42.9101 59.7892 42.7165 59.7306 42.552 59.6205C42.3874 59.5105 42.2594 59.354 42.184 59.171L41.037 56.404C40.9474 56.1613 40.9552 55.8933 41.0588 55.6563C41.1624 55.4193 41.3537 55.2315 41.5927 55.1325C41.8317 55.0334 42.0997 55.0307 42.3407 55.125C42.5816 55.2192 42.7766 55.4031 42.885 55.638L44.032 58.405C44.0949 58.557 44.1195 58.7222 44.1034 58.8859C44.0872 59.0497 44.031 59.2069 43.9397 59.3438C43.8483 59.4806 43.7246 59.5928 43.5796 59.6705C43.4345 59.7481 43.2725 59.7888 43.108 59.789ZM20.911 59.797C20.7465 59.797 20.5845 59.7565 20.4394 59.6789C20.2943 59.6014 20.1706 59.4893 20.0792 59.3525C19.9879 59.2157 19.9316 59.0585 19.9155 58.8948C19.8994 58.7311 19.924 58.5659 19.987 58.414L21.133 55.646C21.1832 55.5246 21.2567 55.4144 21.3495 55.3215C21.4423 55.2285 21.5525 55.1548 21.6737 55.1045C21.795 55.0542 21.925 55.0282 22.0563 55.0281C22.1876 55.028 22.3176 55.0538 22.439 55.104C22.5603 55.1541 22.6706 55.2277 22.7635 55.3205C22.8564 55.4133 22.9301 55.5234 22.9805 55.6447C23.0308 55.766 23.0568 55.896 23.0568 56.0273C23.0569 56.1586 23.0312 56.2886 22.981 56.41L21.835 59.178C21.7597 59.3611 21.6316 59.5177 21.4671 59.6279C21.3026 59.7382 21.109 59.797 20.911 59.797ZM5.21199 44.108C4.98075 44.1075 4.75681 44.027 4.5782 43.8801C4.3996 43.7333 4.27735 43.5291 4.23223 43.3023C4.1871 43.0755 4.22189 42.8401 4.33068 42.636C4.43946 42.432 4.61554 42.2719 4.82899 42.183L7.59599 41.036C7.71733 40.9857 7.84739 40.9598 7.97874 40.9597C8.11009 40.9597 8.24017 40.9855 8.36153 41.0358C8.4829 41.086 8.59318 41.1597 8.68609 41.2525C8.77899 41.3454 8.85269 41.4556 8.90299 41.577C8.95328 41.6983 8.97919 41.8284 8.97922 41.9597C8.97925 42.0911 8.95341 42.2212 8.90318 42.3425C8.85294 42.4639 8.77929 42.5742 8.68643 42.6671C8.59358 42.76 8.48333 42.8337 8.36199 42.884L5.59499 44.031C5.4736 44.0815 5.34347 44.1077 5.21199 44.108ZM7.97099 23.058C7.83982 23.0577 7.71 23.0316 7.58899 22.981L4.82099 21.835C4.58044 21.7306 4.3905 21.5359 4.29209 21.2929C4.19368 21.0498 4.19467 20.7779 4.29486 20.5355C4.39504 20.2932 4.58639 20.0999 4.8277 19.9973C5.06901 19.8947 5.34097 19.891 5.58499 19.987L8.35299 21.133C8.56739 21.221 8.74454 21.3809 8.85415 21.5851C8.96375 21.7893 8.99902 22.0253 8.9539 22.2526C8.90878 22.48 8.78609 22.6846 8.60681 22.8315C8.42752 22.9784 8.20277 23.0584 7.97099 23.058ZM22.041 8.97897C21.843 8.97921 21.6495 8.92058 21.485 8.81053C21.3204 8.70049 21.1924 8.544 21.117 8.36097L19.97 5.59397C19.8774 5.3508 19.8833 5.08112 19.9864 4.84221C20.0894 4.60329 20.2815 4.41395 20.5219 4.31439C20.7623 4.21482 21.032 4.21287 21.2739 4.30895C21.5157 4.40503 21.7105 4.59157 21.817 4.82897L22.964 7.59598C23.0267 7.74787 23.0511 7.91286 23.0349 8.07639C23.0187 8.23993 22.9626 8.39697 22.8713 8.53365C22.7801 8.67033 22.6567 8.78246 22.5118 8.86012C22.367 8.93779 22.2053 8.97861 22.041 8.97897Z" fill="#FBB03B"/>
<path d="M32 55C44.7025 55 55 44.7025 55 32C55 19.2975 44.7025 9 32 9C19.2975 9 9 19.2975 9 32C9 44.7025 19.2975 55 32 55Z" fill="#FBB03B"/>
<path d="M49.667 17.276C50.5509 19.7552 51.0018 22.368 51 25C51 37.703 40.703 48 28 48C20.899 48 14.552 44.781 10.333 39.724C13.507 48.626 22.008 55 32 55C44.703 55 55 44.703 55 32C55.0072 26.6179 53.1191 21.4051 49.667 17.276Z" fill="#E29E35"/>
</svg>
